<?xml version="1.0" standalone="no"?>
<!DOCTYPE svg PUBLIC "-//W3C//DTD SVG 20010904//EN"
 "http://www.w3.org/TR/2001/REC-SVG-20010904/DTD/svg10.dtd">
<svg version="1.0" xmlns="http://www.w3.org/2000/svg" viewBox="0 0 254 240"
 preserveAspectRatio="xMidYMid meet">

<g transform="translate(0.000000,240.000000) scale(0.100000,-0.100000)"
fill="currentcolor" stroke="none">
<path d="M642 2370 c-66 -33 -109 -76 -144 -143 -19 -35 -23 -62 -26 -169 l-4
-128 100 0 100 0 4 104 c2 72 8 109 18 121 37 45 40 45 815 45 786 0 788 0
814 -48 8 -14 11 -220 11 -657 l0 -636 -24 -24 c-14 -14 -42 -27 -65 -31 l-41
-7 0 -98 0 -99 53 0 c100 0 214 78 261 179 21 45 21 56 24 686 2 455 0 656 -8
695 -21 101 -99 191 -197 226 -31 11 -190 13 -834 14 l-796 0 -61 -30z"/>
<path d="M230 1791 c-91 -29 -160 -88 -199 -171 l-26 -55 -3 -630 c-2 -443 0
-648 8 -689 18 -93 78 -170 170 -218 l45 -23 797 -3 c779 -2 797 -2 850 18 74
27 131 79 165 148 l28 57 3 661 c2 650 2 663 -18 718 -26 67 -92 139 -158 169
-47 22 -48 22 -842 24 -437 1 -806 -2 -820 -6z m1607 -224 l28 -27 3 -628 c3
-695 5 -679 -61 -701 -39 -14 -1505 -15 -1541 -1 -14 5 -33 21 -43 37 -17 25
-18 69 -21 643 -2 571 -1 617 15 650 10 19 29 40 43 47 20 10 190 12 787 10
l763 -2 27 -28z"/>
<path d="M517 1096 c-21 -8 -48 -22 -59 -33 -28 -25 -58 -91 -58 -131 0 -66
50 -138 113 -161 19 -7 189 -11 493 -11 443 0 467 1 503 20 48 24 78 60 91
111 23 84 -34 185 -117 208 -61 17 -918 14 -966 -3z"/>
</g>
</svg>
